<svg fill="none" height="200" viewBox="0 0 200 200" width="200" xmlns="http://www.w3.org/2000/svg"><g clip-rule="evenodd" fill-rule="evenodd"><path d="m100 200c55.228 0 100-44.772 100-100 0-55.2285-44.772-100-100-100-55.2285 0-100 44.7715-100 100 0 55.228 44.7715 100 100 100z" fill="#0dbd8b"/><g fill="#fff"><path d="m81.7169 46.5946c0-4.0365 3.279-7.3087 7.3239-7.3087 27.4152 0 49.6402 22.1783 49.6402 49.5366 0 4.0365-3.28 7.3087-7.324 7.3087-4.045 0-7.324-3.2722-7.324-7.3087 0-19.2853-15.667-34.9192-34.9922-34.9192-4.0449 0-7.3239-3.2722-7.3239-7.3087z"/><path d="m153.39 81.5137c4.045 0 7.324 3.2722 7.324 7.3087 0 27.3586-22.224 49.5366-49.639 49.5366-4.045 0-7.324-3.272-7.324-7.309 0-4.036 3.279-7.308 7.324-7.308 19.325 0 34.991-15.634 34.991-34.9196 0-4.0365 3.279-7.3087 7.324-7.3087z"/><path d="m118.398 153.405c0 4.037-3.279 7.309-7.324 7.309-27.4148 0-49.6393-22.178-49.6393-49.537 0-4.036 3.2791-7.308 7.324-7.308 4.0448 0 7.3239 3.272 7.3239 7.308 0 19.286 15.6663 34.92 34.9914 34.92 4.045 0 7.324 3.272 7.324 7.308z"/><path d="m46.6097 118.486c-4.0449 0-7.3239-3.272-7.3239-7.308 0-27.3587 22.2244-49.5371 49.6397-49.5371 4.0449 0 7.3239 3.2723 7.3239 7.3088s-3.279 7.3087-7.3239 7.3087c-19.3255 0-34.9918 15.6338-34.9918 34.9196 0 4.036-3.2791 7.308-7.324 7.308z"/></g></g></svg>