<svg enable-background="new 0 15 340 340" height="340" viewBox="0 15 340 340" width="340" xmlns="http://www.w3.org/2000/svg" xmlns:xlink="http://www.w3.org/1999/xlink"><linearGradient id="a" gradientTransform="matrix(340 0 0 -340 -137439.5781 156271.1719)" gradientUnits="userSpaceOnUse" x1="404.7341" x2="404.7341" y1="460.155" y2="458.5253"><stop offset="0" stop-color="#65d09b"/><stop offset="1" stop-color="#4db38e"/></linearGradient><g transform="translate(0 15)"><path d="m70 0h200c38.66 0 70 31.341 70 70v200c0 38.66-31.34 70-70 70h-200c-38.66 0-70-31.34-70-70v-200c0-38.659 31.34-70 70-70z" fill="url(#a)"/><path d="m237.613 138.158c-2.887-2.876-7.562-2.878-10.447 0-2.887 2.878-2.887 7.541 0 10.419 7.774 7.752 12.058 18.024 12.058 28.923 0 10.897-4.283 21.17-12.058 28.925-2.887 2.876-2.887 7.541 0 10.417 1.443 1.438 3.332 2.158 5.224 2.158 1.889 0 3.78-.72 5.224-2.158 10.566-10.538 16.386-24.508 16.386-39.342 0-14.835-5.82-28.805-16.387-39.342z" opacity=".15119705"/><path d="m267.333 113.159c-2.823-2.879-7.394-2.879-10.217 0-2.822 2.88-2.822 7.55 0 10.428 28.587 29.177 28.587 76.651 0 105.827-2.822 2.878-2.822 7.548 0 10.426 1.412 1.44 3.259 2.16 5.108 2.16s3.696-.72 5.108-2.163c34.224-34.924 34.224-91.753.001-126.678z" fill="#131514" opacity=".18897746"/><image height="59" overflow="visible" transform="translate(26.0403 159.0076)" width="200" xlink:href="63B1180A09EBFDDC.png"/><path d="m55.5 167h141c7.456 0 13.5 6.044 13.5 13.5 0 7.456-6.044 13.5-13.5 13.5h-141c-7.456 0-13.5-6.044-13.5-13.5 0-7.456 6.044-13.5 13.5-13.5z" fill="#fff"/><image height="57" overflow="visible" transform="translate(24.9543 101.9998)" width="174" xlink:href="63B1180A09EBFDDD.png"/><path d="m53.5 110h117c6.903 0 12.5 5.597 12.5 12.5 0 6.904-5.597 12.5-12.5 12.5h-117c-6.904 0-12.5-5.596-12.5-12.5 0-6.904 5.596-12.5 12.5-12.5z" fill="#fff"/><image height="57" overflow="visible" transform="translate(25.0403 217.9998)" width="137" xlink:href="63B1180A09EBFDDB.png"/><path d="m53.5 226h80c6.903 0 12.5 5.597 12.5 12.5 0 6.904-5.597 12.5-12.5 12.5h-80c-6.904 0-12.5-5.596-12.5-12.5 0-6.904 5.596-12.5 12.5-12.5z" fill="#fff"/></g></svg>